<?xml version="1.0" encoding="UTF-8"?>
<svg version="1.1" xmlns="http://www.w3.org/2000/svg" width="48" height="48">
<path d="M0 0 C2.64 0 5.28 0 8 0 C8.33 1.65 8.66 3.3 9 5 C9.66 4.67 10.32 4.34 11 4 C15.42581869 3.78858686 19.85534245 3.81420292 24.28564453 3.81469727 C26.4914065 3.81250853 28.69667016 3.7943414 30.90234375 3.77539062 C32.29947745 3.77245707 33.69661353 3.77047202 35.09375 3.76953125 C36.36927734 3.76542236 37.64480469 3.76131348 38.95898438 3.75708008 C42 4 42 4 44 6 C44.24757295 12.79057236 43.09251841 20.89854477 40 27 C36.23188239 29.62198184 33.38805673 28.74514171 29 28 C28.67 28.33 28.34 28.66 28 29 C25.35519961 28.98816644 22.76223596 28.90135441 20.125 28.75 C19.02478516 28.70939453 19.02478516 28.70939453 17.90234375 28.66796875 C12.51863213 28.36397046 12.51863213 28.36397046 10.03515625 26.62109375 C8.67030594 24.48368666 8.33686099 22.4927713 8 20 C6.35 20 4.7 20 3 20 C3 19.01 3 18.02 3 17 C4.98 17 6.96 17 9 17 C9 15.68 9 14.36 9 13 C5.7 13 2.4 13 -1 13 C-1 12.01 -1 11.02 -1 10 C1.31 10 3.62 10 6 10 C5.3045656 6.99615946 5.3045656 6.99615946 4 4 C1.96756452 3.03122943 1.96756452 3.03122943 0 3 C0 2.01 0 1.02 0 0 Z " fill="#DBEDFE" transform="translate(2,6)"/>
<path d="M0 0 C4.37823917 -0.04938149 8.75633146 -0.0857104 13.13476562 -0.10986328 C14.6247032 -0.11993043 16.11462097 -0.13358518 17.60449219 -0.15087891 C19.74419028 -0.17509653 21.88362753 -0.18647564 24.0234375 -0.1953125 C25.31169434 -0.20578613 26.59995117 -0.21625977 27.92724609 -0.22705078 C31 0 31 0 33 2 C33.24757295 8.79057236 32.09251841 16.89854477 29 23 C26.37379897 24.76671706 25.43363493 25.05913204 22.25 24.625 C21.5075 24.41875 20.765 24.2125 20 24 C20.33 23.01 20.66 22.02 21 21 C21.80824219 20.77570312 22.61648437 20.55140625 23.44921875 20.3203125 C24.29097656 19.88460938 25.13273437 19.44890625 26 19 C26.88903669 16.12959483 27.41389005 13.80661866 27.8125 10.875 C28.204375 8.27625 28.59625 5.6775 29 3 C19.76 3 10.52 3 1 3 C0.67 2.01 0.34 1.02 0 0 Z " fill="#2F9CFE" transform="translate(13,10)"/>
<path d="M0 0 C2.64 0 5.28 0 8 0 C8.99 2.31 9.98 4.62 11 7 C17.93 7.495 17.93 7.495 25 8 C25 9.32 25 10.64 25 12 C22.39421134 11.91304042 19.7918721 11.80618592 17.1875 11.6875 C16.44951172 11.66494141 15.71152344 11.64238281 14.95117188 11.61914062 C9.49785548 11.34770859 9.49785548 11.34770859 7.03125 9.625 C5.67314757 7.48495981 5.33672669 5.49177752 5 3 C3.35 3 1.7 3 0 3 C0 2.01 0 1.02 0 0 Z " fill="#319DFE" transform="translate(5,23)"/>
<path d="M0 0 C2.64 0 5.28 0 8 0 C8.66 2.97 9.32 5.94 10 9 C11.32 9.33 12.64 9.66 14 10 C14 10.99 14 11.98 14 13 C9.05 13 4.1 13 -1 13 C-1 12.01 -1 11.02 -1 10 C1.31 10 3.62 10 6 10 C5.3045656 6.99615946 5.3045656 6.99615946 4 4 C1.96756452 3.03122943 1.96756452 3.03122943 0 3 C0 2.01 0 1.02 0 0 Z " fill="#2F9DFD" transform="translate(2,6)"/>
<path d="M0 0 C3.63 0 7.26 0 11 0 C11.08159574 4.16138263 10.98248524 7.9472484 10 12 C9.46375 11.319375 8.9275 10.63875 8.375 9.9375 C5.64828256 6.56498106 2.83297655 3.28367737 0 0 Z " fill="#92C8FE" transform="translate(31,13)"/>
<path d="M0 0 C1.98 0 3.96 0 6 0 C6 1.98 6 3.96 6 6 C4.02 6 2.04 6 0 6 C0 4.02 0 2.04 0 0 Z " fill="#2D9CFD" transform="translate(31,36)"/>
<path d="M0 0 C1.98 0 3.96 0 6 0 C6 1.98 6 3.96 6 6 C4.02 6 2.04 6 0 6 C0 4.02 0 2.04 0 0 Z " fill="#2D9CFD" transform="translate(17,36)"/>
<path d="M0 0 C1.98 0 3.96 0 6 0 C6 0.99 6 1.98 6 3 C4.02 3 2.04 3 0 3 C0 2.01 0 1.02 0 0 Z " fill="#2D9AFD" transform="translate(2,29)"/>
</svg>
